<svg xmlns="http://www.w3.org/2000/svg" height="35.663" width="40.028" viewBox="0 0 30.021 26.747"><g fill="#287d8f"><path d="M15.298 9.146c-1.078 0-1.945.874-1.945 1.945s.867 1.953 1.945 1.953 1.945-.883 1.945-1.953-.867-1.945-1.945-1.945"/><path d="M29.114 11.149c0-5.621-6.309-10.188-14.07-10.188C7.29.961.982 5.527.982 11.149c0 5.547 6.047 9.73 14.062 9.73.215 0 .43-.003.664-.015a68.824 68.824 0 014.82 3.59c.473.382.88.703 1.25.976.282.2.582.403.985.403.215 0 .437-.051.633-.145.48-.242.714-.719.687-1.414-.02-.598-.113-1.121-.219-1.723a27.812 27.812 0 01-.414-3.472c3.653-1.954 5.664-4.758 5.664-7.93m-8.425 7.258c.05 1.16.296 2.21.511 3.132.04.18.078.36.125.532-.32-.266-.636-.535-.976-.82-1.16-.985-2.356-2-3.446-2.735a1.4 1.4 0 00-.789-.238c-.03 0-.058 0-.086.004-.363.02-.675.03-.984.03-6.457 0-11.336-3.089-11.336-7.163 0-4.207 5.086-7.625 11.336-7.625 6.258 0 11.34 3.418 11.34 7.625 0 2.363-1.855 4.633-4.969 6.062a1.242 1.242 0 00-.726 1.196"/><path d="M9.684 9.146c-1.074 0-1.941.874-1.941 1.945s.867 1.953 1.941 1.953c1.079 0 1.954-.883 1.954-1.953s-.876-1.945-1.954-1.945m11.219 0c-1.074 0-1.941.874-1.941 1.945s.867 1.953 1.941 1.953 1.941-.883 1.941-1.953-.867-1.945-1.941-1.945"/></g></svg>