<svg xmlns="http://www.w3.org/2000/svg" height="35.663" width="40.028" viewBox="0 0 30.021 26.747"><g fill="#b39961"><path d="M15.181 9.1a1.948 1.948 0 000 3.895c1.078 0 1.945-.88 1.945-1.95S16.26 9.1 15.181 9.1"/><path d="M29.001 11.1c0-5.621-6.313-10.184-14.07-10.184C7.173.916.865 5.479.865 11.1c0 5.547 6.05 9.734 14.066 9.734.21 0 .43-.008.66-.015a70.439 70.439 0 014.824 3.586c.473.386.88.707 1.25.976.278.203.582.407.985.407.21 0 .437-.051.629-.149.484-.238.714-.719.687-1.41-.015-.598-.113-1.121-.215-1.727a26.901 26.901 0 01-.414-3.469c3.649-1.953 5.664-4.757 5.664-7.933m-8.43 7.258c.055 1.164.298 2.214.512 3.136.043.176.082.356.13.532-.321-.266-.641-.54-.977-.82-1.16-.989-2.36-2.005-3.45-2.739-.23-.152-.5-.238-.789-.238a.476.476 0 00-.082.008c-.367.02-.68.03-.984.03-6.457 0-11.336-3.089-11.336-7.167 0-4.203 5.082-7.625 11.336-7.625 6.254 0 11.336 3.422 11.336 7.625 0 2.363-1.855 4.637-4.969 6.066-.46.211-.754.684-.726 1.192"/><path d="M9.571 9.1c-1.078 0-1.941.875-1.941 1.945s.863 1.95 1.941 1.95c1.075 0 1.95-.88 1.95-1.95S10.645 9.1 9.57 9.1m11.22 0c-1.078 0-1.945.875-1.945 1.945s.867 1.95 1.945 1.95a1.947 1.947 0 000-3.894"/></g></svg>