<svg xmlns="http://www.w3.org/2000/svg" height="34.373" width="57.159" viewBox="0 0 42.869 25.78"><defs><clipPath id="a"><path d="M662 57h22v13.656h-22z"/></clipPath><clipPath id="b"><path d="M672 47h22.758v18h-22.76z"/></clipPath></defs><g transform="translate(-652.21 -45.587)" clip-path="url(#a)"><path d="M683.32 62.805v-2.59a2.594 2.594 0 00-2.586-2.586H665.2a2.595 2.595 0 00-2.59 2.586v7.77a2.598 2.598 0 002.59 2.59h15.535a2.597 2.597 0 002.586-2.59v-2.59h-2.586v2.586l-.008.004h-15.523l-.004-.004v-7.758l.004-.008h15.523l.008.008v2.582z" fill="#28a6b0"/></g><g transform="translate(-652.21 -45.587)" clip-path="url(#b)"><path d="M689.32 47.938l-14.934 4.281a2.598 2.598 0 00-1.777 3.203l.379 1.371 2.488-.714-.375-1.368.004-.004 14.922-4.28.008.003 2.137 7.457-.004.008-7.461 2.14-2.489.712-4.972 1.425h-.008l-1.047-3.605-2.488.715 1.05 3.605a2.594 2.594 0 003.2 1.777l4.98-1.43 2.488-.71 7.465-2.14a2.6 2.6 0 001.778-3.204l-2.145-7.469c-.4-1.367-1.84-2.168-3.2-1.773" fill="#3f3d3d"/></g><path d="M40.708 7.624l-.004-.004z" fill="#353333"/><path d="M3.075 15.46h1.43c.308 0 .613-.273.648-.543l1.672-9.578V1.523a.673.673 0 00-.648-.649H1.403a.67.67 0 00-.644.649v3.886l1.668 9.508c.035.27.34.543.648.543M.552 21.866c0 1.738 1.465 3.203 3.203 3.203 1.773 0 3.273-1.465 3.273-3.203 0-1.77-1.5-3.27-3.273-3.27-1.738 0-3.203 1.5-3.203 3.27" fill="#287d8f"/></svg>