<svg xmlns="http://www.w3.org/2000/svg" height="42.603" width="43.052" viewBox="0 0 32.289 31.952"><defs><clipPath id="a"><path d="M444 43h3v26.379h-3z"/></clipPath><clipPath id="b"><path d="M435 58h12v11.379h-12z"/></clipPath><clipPath id="c"><path d="M444 58h12v11.379h-12z"/></clipPath></defs><g clip-path="url(#a)" transform="translate(-429.44 -38.46)"><path d="M445.61 69.379a1.084 1.084 0 01-1.082-1.082V44.496a1.082 1.082 0 112.164 0v23.801c0 .598-.484 1.082-1.082 1.082" fill="#353a4a"/></g><g clip-path="url(#b)" transform="translate(-429.44 -38.46)"><path d="M436.95 69.379a1.084 1.084 0 01-.766-1.848l8.657-8.656a1.08 1.08 0 011.527 0c.426.426.426 1.11 0 1.531l-8.652 8.653c-.211.21-.489.32-.766.32" fill="#353a4a"/></g><g clip-path="url(#c)" transform="translate(-429.44 -38.46)"><path d="M454.26 69.379c-.277 0-.555-.11-.766-.32l-8.652-8.653a1.084 1.084 0 010-1.53 1.08 1.08 0 011.527 0l8.657 8.655a1.083 1.083 0 01-.766 1.848" fill="#353a4a"/></g><path d="M18.332 21.18a2.163 2.163 0 11-4.324 0 2.163 2.163 0 114.324 0" fill="#3a4754"/><path d="M1.027 20.098h30.29V1.707H1.026z" fill="#dcd4cc"/><path d="M31.313.626H1.028a.542.542 0 100 1.082h30.285a.542.542 0 100-1.082" fill="#353a4a"/><path d="M20.758 6.313a6.474 6.474 0 00-4.59-1.898v6.488z" fill="#d9d9d9"/><path d="M16.168 4.415a6.49 6.49 0 104.59 11.078l-4.59-4.59z" fill="#287d8f"/><path d="M20.758 6.313l-4.59 4.59 4.59 4.59a6.461 6.461 0 001.902-4.59 6.468 6.468 0 00-1.902-4.59" fill="#28a6b0"/></svg>