<svg xmlns="http://www.w3.org/2000/svg" height="35.716" width="45.907" viewBox="0 0 34.43 26.787"><path d="M18.617 25.83c2.7-.273 5.188-1.39 7.203-3.227l-1.844-3.195a9 9 0 01-5.722 2.883c-.305.031-.618.05-.926.05-.313 0-.613-.015-.926-.05a9.052 9.052 0 01-8.156-9.031v-.274h4.523L7.824 4.42 6.777 2.607.789 12.987H4.69v.273a12.594 12.594 0 0011.344 12.57 12.789 12.789 0 002.582 0" fill="#28a6b0"/><path d="M21.887 13.533h4.523v-.273a9.053 9.053 0 00-9.082-9.083 9.014 9.014 0 00-6.648 2.926l-1.855-3.18a12.53 12.53 0 018.504-3.3 12.598 12.598 0 0112.637 12.633v.272l.274.004h3.629L27.88 23.907z" fill="#287d8f"/></svg>