<svg xmlns="http://www.w3.org/2000/svg" height="44.029" width="24.075" viewBox="0 0 18.056 33.022"><path d="M8.067 32.346h1.922V16.92H8.067z" fill="#474c57"/><path d="M10.95 31.865a.48.48 0 01-.48.48H7.587a.48.48 0 01-.48-.48V21.287c0-.262.214-.48.48-.48h2.883c.265 0 .48.218.48.48z" fill="#353a4a"/><path d="M15.145 3.15A8.615 8.615 0 009.028.615v8.652z" fill="#287d8f"/><path d="M9.028.615A8.654 8.654 0 00.375 9.267c0 4.782 3.875 8.657 8.653 8.657a8.62 8.62 0 006.117-2.535L9.028 9.267z" fill="#28a6b0"/><path d="M17.68 9.268a8.63 8.63 0 00-2.535-6.118L9.028 9.267l6.117 6.122a8.63 8.63 0 002.535-6.121" fill="#f0eeee"/><path d="M9.028 2.537c3.71 0 6.73 3.02 6.73 6.73 0 3.711-3.02 6.735-6.73 6.735-3.711 0-6.73-3.023-6.73-6.734s3.019-6.731 6.73-6.731m0-1.922A8.654 8.654 0 00.375 9.267c0 4.782 3.875 8.657 8.653 8.657 4.777 0 8.652-3.875 8.652-8.657A8.654 8.654 0 009.028.615" fill="#353a4a"/><path d="M9.028 3.502v1.922a.96.96 0 100-1.922" fill="#28a6b0"/><path d="M9.028 3.502a5.775 5.775 0 00-5.77 5.766c0 .53.43.964.961.964s.961-.433.961-.964a3.85 3.85 0 013.848-3.844z" fill="#97ccd1"/></svg>