<svg xmlns="http://www.w3.org/2000/svg" height="25.472" width="67.823" viewBox="0 0 50.867 19.104"><path d="M45.395 14.495a.994.994 0 01-.992-.992c0-3.828-3.113-6.945-6.942-6.945H1.746a.991.991 0 110-1.985h35.715c4.922 0 8.926 4.008 8.926 8.93a.991.991 0 01-.992.992" fill="#353a4a"/><path d="M45.395 14.495a.994.994 0 01-.992-.992c0-3.828-3.113-6.945-6.942-6.945H1.746a.991.991 0 110-1.985h35.715c4.922 0 8.926 4.008 8.926 8.93a.991.991 0 01-.992.992" fill="#353a4a"/><path d="M5.715 14.495a.994.994 0 01-.992-.992c0-4.922 4.008-8.93 8.93-8.93h35.71a.991.991 0 110 1.984h-35.71c-3.828 0-6.945 3.118-6.945 6.946a.991.991 0 01-.993.992" fill="#3f3d3d"/><path d="M21.587 6.557h-7.934c-.691 0-1.355.102-1.984.29V17.47H5.716a3.982 3.982 0 01-3.969-3.969V6.557v6.945a3.982 3.982 0 003.969 3.97h11.906a3.979 3.979 0 003.965-3.97v-.992a.99.99 0 01-.989-.992c0-1.113.368-2.145.989-2.973zM17.622 1.6H11.67v2.973h9.793a3.981 3.981 0 00-3.84-2.973" fill="#287d8f"/><path d="M13.653 4.573h-1.984v.222a8.956 8.956 0 011.984-.222" fill="#7a7d7f"/><path d="M21.462 4.573h-7.809a8.99 8.99 0 00-1.984.222v2.051a6.925 6.925 0 011.984-.289h7.934v-.992c0-.34-.043-.672-.125-.992" fill="#545457"/><path d="M49.364 6.557h-6.297a8.927 8.927 0 013.32 6.945.991.991 0 11-1.984 0c0-3.14-2.094-5.8-4.957-6.656v10.625h-5.953a3.98 3.98 0 01-3.969-3.969v-.992.992a3.98 3.98 0 003.969 3.97h11.902a3.98 3.98 0 003.969-3.97zM45.395 1.6h-5.949v2.973h9.793A3.99 3.99 0 0045.395 1.6" fill="#28a6b0"/><path d="M43.067 6.557h-3.621v.29a6.957 6.957 0 014.957 6.655.991.991 0 101.984 0c0-2.8-1.297-5.304-3.32-6.945m6.172-1.984h-9.797v1.984h9.922v-.992c0-.34-.043-.672-.125-.992" fill="#7a7d7f"/><path d="M29.524 12.51a.994.994 0 01-.992-.992 2.98 2.98 0 00-2.977-2.977 2.98 2.98 0 00-2.976 2.977.991.991 0 11-1.98 0 4.965 4.965 0 014.956-4.961 4.968 4.968 0 014.961 4.96.994.994 0 01-.992.993" fill="#3f3d3d"/><path d="M8.047 6.557h-6.3v6.945a3.98 3.98 0 003.968 3.97h5.954V6.845a6.955 6.955 0 00-4.961 6.656.991.991 0 11-1.985 0 8.92 8.92 0 013.324-6.945M11.67 1.6H5.715a3.981 3.981 0 00-3.84 2.973h9.794z" fill="#28a6b0"/><path d="M11.669 4.573H1.876c-.082.32-.129.652-.129.992v.992h6.3a8.936 8.936 0 013.622-1.762z" fill="#7a7d7f"/><path d="M11.669 4.795a8.936 8.936 0 00-3.621 1.762 8.918 8.918 0 00-3.324 6.945.991.991 0 101.984 0c0-3.14 2.094-5.8 4.961-6.656z" fill="#7a7d7f"/><path d="M37.462 6.557h-7.938v1.988c.626.829.993 1.86.993 2.973a.994.994 0 01-.992.992v.992a3.98 3.98 0 003.968 3.97h5.953V6.845a6.946 6.946 0 00-1.984-.289M39.446 1.6h-5.953a3.99 3.99 0 00-3.843 2.973h9.796z" fill="#287d8f"/><path d="M39.446 6.557h-9.922 7.938c.687 0 1.355.102 1.984.29z" fill="#7a7d7f"/><path d="M39.446 4.573h-9.797a3.99 3.99 0 00-.125.992v.992h9.922z" fill="#545457"/><path d="M29.524 8.545v3.965a.994.994 0 00.992-.992 4.92 4.92 0 00-.992-2.973" fill="#686e78"/><path d="M17.622.608H5.716a4.965 4.965 0 00-4.96 4.957v7.937a4.968 4.968 0 004.96 4.961h11.906a4.965 4.965 0 004.957-4.96V5.564A4.961 4.961 0 0017.622.608m2.977 12.895a2.98 2.98 0 01-2.977 2.976H5.716a2.98 2.98 0 01-2.977-2.976V5.565a2.977 2.977 0 012.977-2.972h11.906a2.977 2.977 0 012.977 2.972zM45.395.608H33.493a4.965 4.965 0 00-4.96 4.957v7.937a4.968 4.968 0 004.96 4.961h11.902a4.968 4.968 0 004.96-4.96V5.564a4.965 4.965 0 00-4.96-4.957m2.977 12.895a2.98 2.98 0 01-2.977 2.976H33.493a2.98 2.98 0 01-2.977-2.976V5.565a2.977 2.977 0 012.977-2.972h11.902a2.977 2.977 0 012.977 2.972z" fill="#3f3d3d"/></svg>