<svg xmlns="http://www.w3.org/2000/svg" xmlns:xlink="http://www.w3.org/1999/xlink" width="45.5" height="43.5"><defs><path id="a" d="M4.885 2.896c-1.984 0-1.999 1.969-2 1.999v33.761c0 1.999 2 1.999 2 1.999h35.501c2 0 2-1.999 2-1.999V4.896c0-2-2-2-2-2H4.885z"/></defs><clipPath id="b"><use xlink:href="#a" overflow="visible"/></clipPath><linearGradient id="c" gradientUnits="userSpaceOnUse" x1="-141.778" y1="815.721" x2="-140.778" y2="815.721" gradientTransform="matrix(0 -38.4039 -38.4039 0 31349.469 -5402.644)"><stop offset="0" stop-color="#fafaf8"/><stop offset="1" stop-color="#edeae6"/></linearGradient><path clip-path="url(#b)" fill="url(#c)" d="M2.885 2.896h39.501v37.759H2.885z"/><defs><path id="d" d="M-397.25-250.5h1224v792h-1224z"/></defs><clipPath id="e"><use xlink:href="#d" overflow="visible"/></clipPath><path clip-path="url(#e)" fill="none" stroke="#BEB6AF" d="M4.886 40.656s-2 0-2-2V4.896s0-2 2-2h35.5s2 0 2 2v33.76s0 2-2 2h-35.5z"/><path clip-path="url(#e)" fill="#05788C" d="M15.716 26.215l6.52-9.92h.8l6.52 9.92-1.56 1.04-5.36-8.16-5.36 8.16z"/></svg>