<svg xmlns="http://www.w3.org/2000/svg" width="350" height="284" fill="#00778a"><path d="M91.809 141.088L217.667 266.94c1.796 1.799 3.868 2.703 6.21 2.703 2.338 0 4.406-.904 6.207-2.703l13.505-13.504c1.8-1.8 2.698-3.867 2.698-6.211 0-2.345-.898-4.412-2.698-6.213L137.447 134.873 243.588 28.731c1.801-1.8 2.699-3.872 2.699-6.21 0-2.343-.898-4.414-2.699-6.215L230.082 2.808c-1.799-1.802-3.867-2.7-6.207-2.7-2.344 0-4.412.9-6.208 2.7L91.809 128.66c-1.8 1.799-2.697 3.872-2.697 6.212s.897 4.412 2.697 6.216z"/><path d="M192.818 134.872c0 2.34.896 4.413 2.703 6.216L321.372 266.94c1.8 1.799 3.871 2.703 6.211 2.703 2.341 0 4.413-.904 6.212-2.703l13.503-13.504c1.803-1.801 2.702-3.869 2.702-6.213s-.899-4.412-2.702-6.212l-106.14-106.139 106.14-106.141c1.803-1.8 2.702-3.872 2.702-6.21 0-2.343-.899-4.414-2.702-6.215L333.797 2.808c-1.801-1.802-3.873-2.7-6.213-2.7s-4.412.9-6.212 2.7L195.521 128.66c-1.806 1.799-2.703 3.872-2.703 6.212zM34.593 269.643H11.89a7.567 7.567 0 01-7.567-7.568V8.561A7.567 7.567 0 0111.89.994h22.703a7.567 7.567 0 017.567 7.567v253.514a7.568 7.568 0 01-7.567 7.568z"/></svg>