<svg xmlns="http://www.w3.org/2000/svg" height="45.955" width="46.192" viewBox="0 0 34.644 34.466"><path d="M17.397 33.622c8.945 0 16.199-7.25 16.199-16.199 0-8.945-7.254-16.199-16.199-16.199-8.95 0-16.199 7.254-16.199 16.199 0 8.95 7.25 16.199 16.199 16.199" fill="#b39961"/><g fill="#fff"><path d="M22.823 25.443c0-3.73-1.508-7.094-3.95-9.54a13.441 13.441 0 00-9.534-3.948v-2.63c8.902 0 16.117 7.216 16.117 16.118z"/><path d="M17.624 25.525a8.19 8.19 0 00-2.41-5.82 8.198 8.198 0 00-5.82-2.41v-2.633c6 0 10.858 4.863 10.862 10.863z"/><path d="M14.495 22.946a2.543 2.543 0 00-2.54-2.543 2.542 2.542 0 000 5.082 2.539 2.539 0 002.54-2.539"/></g></svg>