<svg xmlns="http://www.w3.org/2000/svg" height="45.955" width="46.192" viewBox="0 0 34.644 34.466"><path d="M17.373 33.433c8.945 0 16.199-7.25 16.199-16.199 0-8.945-7.254-16.199-16.199-16.199-8.945 0-16.199 7.254-16.199 16.199 0 8.95 7.254 16.199 16.199 16.199" fill="#b39961"/><path d="M27.544 13.015a.221.221 0 01-.223.227h-1.218l-5.536 11.785a.238.238 0 01-.207.128.233.233 0 01-.203-.125l-2.625-5.21-2.836 5.214a.226.226 0 01-.207.121.23.23 0 01-.199-.128L8.696 13.242h-1.27a.227.227 0 01-.226-.227v-.598c0-.12.102-.222.227-.222h4.515c.121 0 .223.101.223.222v.598a.226.226 0 01-.223.227h-.972l3.863 8.91 2.008-3.754-2.547-5.156h-.613a.223.223 0 01-.223-.227v-.598c0-.12.098-.222.223-.222h3.343c.121 0 .223.101.223.222v.598a.226.226 0 01-.223.227h-.593l1.464 3.21 1.75-3.21h-1.07a.227.227 0 01-.226-.227v-.598c0-.12.101-.222.226-.222h3.242c.125 0 .227.101.227.222v.598a.227.227 0 01-.227.227h-.71L18.56 17.87l2.074 4.27 4.008-8.9h-1.27a.226.226 0 01-.223-.226v-.598c0-.12.102-.222.223-.222h3.95a.22.22 0 01.222.222z" fill="#fff"/></svg>