<svg xmlns="http://www.w3.org/2000/svg" height="45.955" width="46.192" viewBox="0 0 34.644 34.466"><path d="M17.423 33.468c8.945 0 16.199-7.254 16.199-16.199 0-8.945-7.254-16.199-16.199-16.199-8.945 0-16.199 7.254-16.199 16.199 0 8.945 7.254 16.199 16.199 16.199" fill="#00778b"/><path d="M27.659 11.085a8.19 8.19 0 01-2.352.645 4.12 4.12 0 001.801-2.262 8.237 8.237 0 01-2.597.992 4.089 4.089 0 00-7.074 2.797c0 .32.034.633.105.934a11.613 11.613 0 01-8.43-4.274 4.089 4.089 0 001.266 5.46 4.11 4.11 0 01-1.852-.51v.05a4.094 4.094 0 003.277 4.012c-.343.09-.703.14-1.074.14a3.86 3.86 0 01-.773-.074 4.104 4.104 0 003.824 2.844 8.234 8.234 0 01-6.059 1.691 11.586 11.586 0 006.27 1.836c7.523 0 11.637-6.23 11.637-11.633 0-.18-.004-.355-.012-.53a8.292 8.292 0 002.043-2.118" fill="#fff"/></svg>