<svg xmlns="http://www.w3.org/2000/svg" height="47.443" width="31.296" viewBox="0 0 23.472 35.582"><path d="M18.773 13.709A9.062 9.062 0 009.71 4.646a9.064 9.064 0 00-9 10.125H.648v8.004h2.125v4a4 4 0 004 3.996h4v4h8v-20h-.063a9.29 9.29 0 00.063-1.062" fill="#28a6b0"/><path d="M6.667 15.522a1.267 1.267 0 11-2.535 0 1.269 1.269 0 012.535 0" fill="#fff"/><path d="M22.913 7.287a6.772 6.772 0 11-13.543 0A6.773 6.773 0 0116.14.514a6.774 6.774 0 016.773 6.773" fill="#353a4a"/><path d="M18.581 5.1c0-1.446-1.242-2.563-3.05-2.563-.622 0-1.106.106-1.47.254l-.082 1.742a4.605 4.605 0 011.391-.258c.824 0 1.336.258 1.336.704 0 .351-.34.445-1.012.636-.84.227-1.351.633-1.351 1.336 0 .578.418 1.227 1.12 1.512.122 0 1.325-.203 1.325-.203-.149-.149-.742-.61-.742-.77.093-.23.43-.336.968-.5.868-.285 1.567-.808 1.567-1.89m-1.496 5.132c0-.73-.516-1.136-1.285-1.136-.754 0-1.27.406-1.27 1.136 0 .743.516 1.145 1.27 1.145.77 0 1.285-.402 1.285-1.145" fill="#fff"/></svg>