<svg xmlns="http://www.w3.org/2000/svg" height="43.609" width="29.784" viewBox="0 0 22.338 32.707"><path d="M5.24.278a.413.413 0 00-.41.41v3.035c0 .226.187.41.41.41h.797V.278z" fill="#287d8f"/><path d="M6.834.278h-.797v3.855h.797a.41.41 0 00.41-.41V.688a.41.41 0 00-.41-.41m.402 11.07H6.04v6.574h1.195c.226 0 .41-.187.41-.41v-5.754a.41.41 0 00-.41-.41" fill="#28a6b0"/><path d="M4.838 11.348a.413.413 0 00-.41.41v5.754c0 .223.187.41.41.41h1.199v-6.574zm8.82 14.211H9.287v-4.367h4.371z" fill="#287d8f"/><path d="M13.658 25.559a2.185 2.185 0 11-4.372.005 2.185 2.185 0 014.372-.005" fill="#353a4a"/><path d="M13.658 25.559c0 1.813 1.953 3.277 4.367 3.277 2.418 0 4.371 1.47 4.371 3.278H.544c0-1.207 1.22-2.184 4.371-2.184 4.832 0 4.371-1.094 4.371-4.371z" fill="#353a4a"/><path d="M12.017 25.559a.546.546 0 11-1.092.002.546.546 0 011.092-.002" fill="#3a4754"/><path d="M11.47 5.895v2.183c1.754 0 3.398.684 4.637 1.918a6.522 6.522 0 011.918 4.637c0 1.754-.68 3.398-1.918 4.637s-2.883 1.918-4.637 1.918v2.187c4.828 0 8.742-3.914 8.742-8.742s-3.914-8.738-8.742-8.738" fill="#28a6b0"/><path d="M16.107 10a6.512 6.512 0 00-4.637-1.922v1.094c1.461 0 2.832.566 3.864 1.598a5.435 5.435 0 011.601 3.863c0 1.46-.57 2.832-1.601 3.863a5.428 5.428 0 01-3.864 1.602H2.732v1.09h8.738c1.754 0 3.399-.68 4.637-1.918s1.918-2.887 1.918-4.637-.68-3.398-1.918-4.633" fill="#3a4754"/><path d="M12.326 9.856c0 .222-.188.41-.41.41H8.365a.413.413 0 01-.41-.41V4.699a.41.41 0 01.41-.41h3.55c.224 0 .411.184.411.41z" fill="#3a4754"/><path d="M11.88 10.262a.954.954 0 01-.957.957.953.953 0 01-.953-.957c0-.527.426-.953.953-.953.531 0 .957.426.957.953" fill="#353a4a"/><path d="M4.334 1.524a.413.413 0 00-.41.41v12.289c0 .226.187.41.41.41h1.703V1.523z" fill="#3a4754"/><path d="M7.884 1.524H6.037v13.109h1.847a.41.41 0 00.41-.41V1.932a.41.41 0 00-.41-.41" fill="#353a4a"/><path d="M10.923 6.438c0 .906-.73 1.64-1.637 1.64a1.64 1.64 0 111.637-1.64" fill="#3a4754"/><path d="M9.834 6.438a.546.546 0 11-1.092.002.546.546 0 011.092-.002" fill="#353a4a"/></svg>