<svg xmlns="http://www.w3.org/2000/svg" width="314.037" height="62.234"><path fill="#05788C" d="M311.36 41.105l-4.687 10.139c-.162.365-.304.691-.426 1.056-.122.365-.233.935-.336.935h-.06c-.041 0-.086-.623-.137-.979-.052-.355-.106-.617-.168-1.003l-1.796-10.147h-2.646l2.952 14.978a22.426 22.426 0 01-1.265 1.903 6.438 6.438 0 01-1.109 1.203 3.373 3.373 0 01-1.08.625 3.464 3.464 0 01-1.142.176c-.467 0-.842-.039-1.126-.11a2.64 2.64 0 01-.64-.231l-1.004 2.069c.142.081.407.187.792.32.385.131.973.196 1.765.196.993 0 1.871-.188 2.633-.562.761-.376 1.479-.954 2.159-1.734.68-.781 1.355-1.775 2.024-2.983.67-1.207 1.41-2.534 2.221-4.218l5.751-11.631h-2.675zm-13.328 10.781c0-.487-.061-.923-.183-1.308-.121-.385-.3-.75-.532-1.096a10.25 10.25 0 00-.837-1.065c-.325-.365-.7-.771-1.126-1.218a28.395 28.395 0 01-1.461-1.645 2.09 2.09 0 01-.487-1.339c0-.526.184-.933.548-1.217.365-.284.872-.427 1.521-.427.67 0 1.213.098 1.628.289.416.193.736.371.959.533l1.248-1.826a5.747 5.747 0 00-1.477-.776c-.577-.212-1.293-.319-2.146-.319-1.46 0-2.616.346-3.468 1.035-.853.689-1.279 1.633-1.279 2.83 0 .832.203 1.548.609 2.146.405.599.952 1.254 1.644 1.963.365.365.689.699.973 1.004.284.305.527.589.731.853.202.263.359.523.471.776.111.254.168.523.168.806 0 .569-.204 1.031-.608 1.386-.407.355-.984.532-1.734.532-.792 0-1.446-.137-1.964-.411a10.598 10.598 0 01-1.354-.837l-1.278 1.796c.345.305.888.635 1.628.989.741.354 1.679.533 2.814.533 1.645 0 2.887-.386 3.729-1.157s1.263-1.714 1.263-2.83m-13.086-7.7a18.6 18.6 0 01-.821 3.395 17.056 17.056 0 01-1.354 3.027c-.518.894-1.08 1.619-1.688 2.176-.608.559-1.218.838-1.825.838-.59 0-1.03-.213-1.324-.639-.294-.427-.441-1.115-.441-2.07 0-1.075.131-2.115.396-3.119.264-1.004.644-1.893 1.142-2.663a6.023 6.023 0 011.811-1.842c.71-.457 1.512-.685 2.403-.685.406 0 .786.029 1.142.092.354.06.613.121.775.182l-.216 1.308zm-1.247-3.713c-1.399 0-2.643.305-3.728.913a8.746 8.746 0 00-2.754 2.419c-.75 1.006-1.324 2.157-1.721 3.455a13.837 13.837 0 00-.592 4.049c0 1.359.303 2.461.912 3.301.609.844 1.522 1.265 2.739 1.265.669 0 1.268-.134 1.795-.396a5.311 5.311 0 001.431-1.051c.425-.436.812-.979 1.156-1.538.344-.558.67-1.083.973-1.797h.062c-.184.714-.33 1.446-.442 2.125-.11.681-.218 1.442-.319 2.156h2.495s.062-.647.183-1.774c.122-1.126.365-2.68.73-4.729l1.4-7.775c-.305-.101-.827-.224-1.568-.387-.739-.164-1.657-.236-2.752-.236m-13.177 5.052c-.345.406-.812.761-1.4 1.065-.588.304-1.282.563-2.085.776-.801.213-1.657.371-2.569.472.182-.731.43-1.416.744-2.056a7.029 7.029 0 011.096-1.644c.416-.456.873-.815 1.37-1.079s1.009-.396 1.536-.396c1.218 0 1.825.498 1.825 1.492 0 .508-.173.964-.517 1.37m1.978-4.201c-.751-.567-1.704-.852-2.859-.852-1.097 0-2.13.264-3.104.791a8.282 8.282 0 00-2.541 2.146c-.72.902-1.294 1.963-1.719 3.181-.427 1.218-.639 2.517-.639 3.896 0 .73.101 1.42.303 2.069.203.65.508 1.224.914 1.72.405.498.922.889 1.551 1.172s1.37.427 2.222.427a7.12 7.12 0 001.871-.228 8.668 8.668 0 001.522-.564 7.869 7.869 0 001.202-.715c.345-.254.639-.492.883-.715l-1.34-1.705c-.406.406-.938.797-1.598 1.172-.659.376-1.395.562-2.206.562-.933 0-1.753-.304-2.197-.912-.447-.609-.799-1.48-.799-2.617v-.457a23.617 23.617 0 003.644-.64c1.126-.284 2.189-.655 3.062-1.11.872-.457 1.604-1.015 2.133-1.674.526-.66.807-1.447.807-2.359-.002-1.157-.361-2.017-1.112-2.588m-21.848 4.201c-.346.406-.812.761-1.401 1.065-.588.304-1.282.563-2.084.776-.801.213-1.657.371-2.57.472.183-.731.431-1.416.746-2.056a6.995 6.995 0 011.095-1.644c.416-.456.872-.815 1.369-1.079s1.009-.396 1.537-.396c1.218 0 1.825.498 1.825 1.492 0 .508-.173.964-.517 1.37m1.978-4.201c-.75-.567-1.703-.852-2.86-.852-1.095 0-2.13.264-3.104.791a8.282 8.282 0 00-2.541 2.146c-.72.902-1.293 1.963-1.719 3.181s-.639 2.517-.639 3.896c0 .73.101 1.42.304 2.069.203.65.507 1.224.913 1.72.406.498.923.889 1.552 1.172s1.37.427 2.223.427c.688 0 1.312-.076 1.87-.228a8.698 8.698 0 001.522-.564c.456-.223.856-.461 1.201-.715s.639-.492.883-.715l-1.339-1.705c-.406.406-.939.797-1.598 1.172-.659.376-1.395.562-2.206.562-.934 0-1.448-.304-1.895-.912-.446-.609-.494-1.48-.494-2.617v-.457c.714-.143 2.214-.354 3.339-.64a12.942 12.942 0 002.91-1.11 6.333 6.333 0 002.057-1.674c.526-.66.77-1.447.77-2.359-.001-1.157-.399-2.017-1.149-2.588m-15.459 2.862a18.65 18.65 0 01-.882 3.424 17.9 17.9 0 01-1.399 3.029c-.528.893-1.116 1.613-1.766 2.161-.649.547-1.308.821-1.978.821-.588 0-1.009-.268-1.263-.807-.254-.537-.381-1.232-.381-2.084 0-1.076.132-2.105.396-3.09.263-.984.648-1.857 1.156-2.617.507-.762 1.11-1.365 1.81-1.812.7-.446 1.496-.67 2.39-.67.467 0 .897.036 1.293.106.396.072.675.138.838.198l-.214 1.341zm.609-3.638c-.203-.04-.462-.007-.775-.067-.315-.062-.767-.05-1.354-.05a7.591 7.591 0 00-3.591.873 8.629 8.629 0 00-2.754 2.308c-.762.965-1.351 2.097-1.766 3.386-.416 1.288-.624 2.665-.624 4.126 0 .65.071 1.264.214 1.843.142.578.359 1.081.653 1.507s.67.766 1.126 1.021c.457.253 1.009.38 1.659.38.649 0 1.242-.137 1.78-.411a6.18 6.18 0 001.49-1.065c.457-.436.872-.969 1.248-1.537.375-.567.726-1.053 1.051-1.767h.06a24.382 24.382 0 00-.44 2.126 101.85 101.85 0 00-.319 2.155h2.465s.065-.647.197-1.774c.132-1.126.381-2.848.746-4.897l2.769-15.444h-2.525l-1.31 7.287zm-15.732 3.638a18.683 18.683 0 01-.821 3.395 16.984 16.984 0 01-1.354 3.027c-.517.894-1.08 1.619-1.688 2.176-.608.559-1.217.838-1.826.838-.588 0-1.03-.213-1.323-.639-.295-.427-.441-1.115-.441-2.07 0-1.075.132-2.115.396-3.119.263-1.004.645-1.893 1.142-2.663a6.023 6.023 0 011.811-1.842c.71-.457 1.511-.685 2.403-.685.405 0 .786.029 1.142.092.355.06.613.121.776.182l-.217 1.308zm-1.247-3.713c-1.4 0-2.644.305-3.729.913a8.757 8.757 0 00-2.754 2.419c-.75 1.006-1.323 2.157-1.719 3.455a13.804 13.804 0 00-.593 4.049c0 1.359.304 2.461.912 3.301.608.844 1.521 1.265 2.738 1.265.67 0 1.269-.134 1.796-.396a5.327 5.327 0 001.431-1.051c.426-.436.811-.979 1.156-1.538.345-.558.669-1.083.974-1.797h.061c-.182.714-.33 1.446-.441 2.125-.111.681-.219 1.442-.319 2.156h2.495s.062-.647.183-1.774c.122-1.126.366-2.68.731-4.729l1.398-7.775c-.304-.101-.827-.224-1.566-.387-.742-.164-1.659-.236-2.754-.236m-14.12 0c-.73 0-1.385.137-1.962.41a6.147 6.147 0 00-1.568 1.066c-.467.436-.887 1.087-1.262 1.635-.376.548-.716 1.089-1.02 1.802h-.062c.062-.713.091-.938.091-1.345 0-.447-.05-.952-.151-1.357-.102-.406-.269-.806-.503-1.121a2.642 2.642 0 00-.912-.781c-.376-.192-.848-.299-1.415-.299-.751 0-1.426.152-2.023.467a6.61 6.61 0 00-1.613 1.185c-.477.478-.888 1.06-1.232 1.618-.346.559-.64.921-.883 1.634h-.061c.081-.713.167-.757.259-1.163s.177-.85.259-1.267c.08-.415.152-.699.213-1.056.061-.354.111-.795.152-.795h-2.435l-2.647 14.269h2.526l.272-1.517c.346-1.906.762-3.531 1.248-4.942.487-1.409 1.004-2.554 1.553-3.468.548-.912 1.12-1.584 1.719-2.031.599-.445 1.182-.665 1.75-.665.567 0 .947.2 1.142.596.192.396.289.859.289 1.386 0 .447-.051.856-.153 1.364l-1.673 9.277h2.525l.273-1.517c.346-1.886.757-3.496 1.232-4.896.477-1.4.995-2.545 1.553-3.468s1.142-1.605 1.749-2.062c.609-.455 1.217-.681 1.826-.681.527 0 .883.18 1.065.535.183.356.273.798.273 1.325 0 .244-.015.492-.046.746-.03.254-.066.455-.106.739l-1.674 9.277h2.526l1.765-9.765c.04-.283.076-.528.107-.803.03-.273.045-.525.045-.789 0-1.097-.243-1.955-.729-2.595-.486-.638-1.247-.948-2.282-.948m95.824-19.898c-.79 0-1.445-.137-1.963-.41a10.947 10.947 0 01-1.354-.837l-1.278 1.795c.345.305.888.635 1.628.989.74.355 1.679.533 2.814.533 1.644 0 2.886-.385 3.728-1.157.843-.771 1.264-1.714 1.264-2.83 0-.487-.062-.923-.184-1.309a4.222 4.222 0 00-.532-1.096c-.232-.345-.513-.7-.837-1.065a42.818 42.818 0 00-1.126-1.217 29.912 29.912 0 01-1.461-1.644 2.098 2.098 0 01-.486-1.339c0-.528.183-.933.549-1.218.365-.284.871-.426 1.521-.426.669 0 1.212.097 1.628.289.416.193.735.371.958.533l1.248-1.826a5.733 5.733 0 00-1.475-.776c-.579-.213-1.294-.32-2.146-.32-1.46 0-2.616.346-3.469 1.035-.852.69-1.278 1.634-1.278 2.831 0 .832.202 1.547.609 2.145.405.599.953 1.253 1.643 1.963.365.366.689.701.974 1.005.285.304.528.589.73.852.202.264.36.523.473.776.11.254.167.523.167.807 0 .568-.203 1.03-.609 1.385s-.986.532-1.736.532m-11.594.261c.65-3.633 1.537-6.421 2.663-8.227 1.126-1.805 2.308-2.743 3.545-2.743.202 0 .375-.002.518.028.142.031.284.058.426.098l.974-2.439a2.82 2.82 0 00-.639-.231 4.165 4.165 0 00-.882-.077c-.548 0-1.08.152-1.599.456-.517.305-.999.7-1.445 1.187-.446.487-.853 1.191-1.217 1.779a10.186 10.186 0 00-.943 1.902h-.062c.143-.714.31-1.483.503-2.345.192-.862.34-1.936.441-2.649h-2.435l-2.647 14.982h2.525l.274-1.721zm-12.492-8.281a7.034 7.034 0 011.097-1.643 5.064 5.064 0 011.369-1.081 3.247 3.247 0 011.536-.396c1.218 0 1.826.498 1.826 1.492 0 .507-.173.964-.517 1.369-.346.407-.812.762-1.401 1.066-.588.304-1.283.563-2.084.776-.801.213-1.658.37-2.57.472.182-.731.43-1.416.744-2.055m-2.357 8.492a4.19 4.19 0 001.552 1.172c.629.284 1.369.426 2.221.426.689 0 1.314-.076 1.872-.228a8.656 8.656 0 001.521-.563 7.821 7.821 0 001.202-.716c.345-.253.639-.491.883-.715l-1.339-1.704c-.406.406-.939.796-1.599 1.171a4.374 4.374 0 01-2.206.564c-.933 0-1.577-.305-2.023-.914-.447-.608-.625-1.48-.625-2.617v-.456c1.427-.142 2.344-.355 3.47-.64a13.448 13.448 0 002.976-1.111c.871-.456 1.561-1.014 2.088-1.674.527-.659.786-1.445.786-2.358 0-1.157-.379-2.019-1.13-2.588-.751-.567-1.705-.852-2.861-.852-1.096 0-2.13.264-3.104.791a8.284 8.284 0 00-2.541 2.146c-.721.903-1.294 1.964-1.72 3.181a11.71 11.71 0 00-.639 3.896c0 .73.101 1.42.304 2.07.201.649.505 1.222.912 1.719M272.44 1.461c-.487 0-.903.173-1.248.518-.345.345-.517.76-.517 1.247 0 .468.172.873.517 1.218s.761.517 1.248.517.902-.172 1.247-.517.517-.75.517-1.218c0-.487-.172-.902-.517-1.247a1.696 1.696 0 00-1.247-.518m-2.099 21.096l2.646-14.982h-2.525l-2.647 14.982h2.526zm-3.256-12.842l.334-2.14h-3.56l.396-2.037c.161-.954.461-1.729.897-2.358.437-.629 1.172-.936 2.207-.936.588 0 1.115.091 1.582.263.466.173.811.342 1.034.504l1.096-2.068c-.285-.183-.735-.385-1.354-.608C269.099.111 268.353 0 267.48 0c-1.664 0-2.951.462-3.865 1.385-.912.923-1.532 2.248-1.855 3.972a122.3 122.3 0 00-.214 1.156c-.041.163-.07.31-.091.442-.02.132-.041.216-.061.317-.021.122-.041.303-.062.303h-2.83l-.335 2.14h2.83l-2.586 13.892a10.03 10.03 0 01-.318 1.299 4.465 4.465 0 01-.533 1.114 2.542 2.542 0 01-.822.786c-.324.192-.71.286-1.156.286a3.85 3.85 0 01-1.08-.139 10.995 10.995 0 01-.867-.289l-.821 2.069c.345.141.72.268 1.126.38.405.111.903.168 1.491.168.852 0 1.587-.123 2.206-.366a4.212 4.212 0 001.582-1.08c.437-.478.791-1.071 1.064-1.781.274-.71.502-1.494.686-2.447l2.525-13.892h3.591zm-11.411-2.14h-2.526L250.5 22.557h2.525l2.649-14.982zm-.549-2.614a1.7 1.7 0 001.248-.517c.346-.345.518-.75.518-1.218 0-.487-.172-.902-.518-1.247a1.701 1.701 0 00-1.248-.518c-.486 0-.902.173-1.248.518-.344.345-.516.76-.516 1.247 0 .468.172.873.516 1.218.346.345.762.517 1.248.517m-8.642 17.136a9.341 9.341 0 001.826-1.248l-1.157-1.735c-.345.264-.74.554-1.186.868a2.486 2.486 0 01-1.462.472c-.324 0-.548-.087-.67-.259-.121-.172-.182-.421-.182-.746 0-.202.021-.431.061-.685.041-.253.092-.484.152-.788l1.522-8.261h3.65l.365-2.14h-3.621l.853-4.685-2.679.653-.729 4.032h-2.557l-.365 2.14h2.525l-1.611 8.717c-.042.285-.076.52-.107.752a5.03 5.03 0 00-.046.673c0 .913.228 1.602.685 2.079.456.476 1.202.712 2.236.712.975 0 1.807-.186 2.497-.551m-18.045-6.468c.507-1.41 1.049-2.566 1.628-3.469.578-.903 1.176-1.568 1.795-1.994.619-.426 1.202-.639 1.75-.639.932 0 1.4.599 1.4 1.795 0 .183-.012.381-.031.594-.021.213-.051.57-.091.793l-1.704 9.848h2.524l1.797-10.031c.039-.284.075-.627.105-.891.031-.263.046-.552.046-.795 0-1.116-.259-2.006-.775-2.635-.518-.629-1.294-.952-2.327-.952-.792 0-1.503.163-2.131.498a6.975 6.975 0 00-1.674 1.23c-.486.487-.914.885-1.278 1.452-.365.569-.669 1.422-.912 1.422h-.062c.081 0 .172-.601.274-1.027.101-.426.192-.777.272-1.183.081-.406.152-.792.215-1.157.06-.365.109-.913.151-.913h-2.435l-2.647 14.982h2.525l.274-1.721c.367-1.969.804-3.796 1.311-5.207m-13.799-3.074a6.968 6.968 0 011.095-1.643 5.068 5.068 0 011.37-1.081 3.247 3.247 0 011.536-.396c1.218 0 1.826.498 1.826 1.492 0 .507-.173.964-.518 1.369-.345.407-.811.762-1.399 1.066-.589.304-1.283.563-2.085.776a17.65 17.65 0 01-2.57.472 10.09 10.09 0 01.745-2.055m-.808 9.664c.629.284 1.37.426 2.223.426a7.13 7.13 0 001.871-.228 8.686 8.686 0 001.521-.563 7.821 7.821 0 001.202-.716c.345-.253.639-.491.882-.715l-1.339-1.704c-.406.406-.938.796-1.597 1.171a4.38 4.38 0 01-2.207.564c-.933 0-1.791-.305-2.237-.914a4.363 4.363 0 01-.837-2.617v-.456a24.172 24.172 0 003.683-.64c1.125-.284 2.209-.654 3.081-1.111.872-.456 1.614-1.014 2.143-1.674a3.682 3.682 0 00.812-2.358c0-1.157-.365-2.019-1.115-2.588-.751-.567-1.698-.852-2.855-.852a6.424 6.424 0 00-3.102.791 8.262 8.262 0 00-2.538 2.146c-.722.903-1.295 1.964-1.72 3.181-.427 1.217-.639 2.516-.639 3.896 0 .73.101 1.42.304 2.07.203.649.508 1.222.914 1.719.405.497.921.888 1.55 1.172m-7.362-11.262a18.79 18.79 0 01-.884 3.425 17.729 17.729 0 01-1.399 3.028c-.528.893-1.116 1.613-1.765 2.161-.649.548-1.309.822-1.978.822-.589 0-1.01-.269-1.263-.807-.254-.537-.381-1.232-.381-2.085 0-1.075.132-2.105.396-3.089.263-.984.649-1.857 1.157-2.618.506-.761 1.109-1.364 1.81-1.811.7-.446 1.495-.669 2.39-.669.466 0 .897.035 1.293.106.395.072.674.137.837.198l-.213 1.339zm.607-3.432c-.203-.04-.461-.11-.774-.171-.315-.061-.768-.101-1.355-.101-1.319 0-2.515.28-3.59.848a8.57 8.57 0 00-2.755 2.296c-.76.964-1.35 2.089-1.765 3.377a13.34 13.34 0 00-.625 4.123c0 .65.071 1.263.215 1.842.141.578.359 1.08.653 1.506a3.28 3.28 0 001.126 1.019c.456.254 1.008.381 1.659.381.648 0 1.242-.137 1.78-.411a6.308 6.308 0 001.491-1.065c.456-.436.872-.764 1.247-1.332s.726-1.561 1.05-1.561h.061c-.183.713-.33 1.436-.44 2.125-.112.69-.219 1.442-.32 2.156h2.465c0-.714.065-.854.198-1.979.132-1.126.38-2.745.745-4.795l2.77-15.341h-2.525l-1.311 7.083zm-12.11-5.658h-2.708l-3.622 20.69h2.708l3.622-20.69zm-50.272 39.791c-3.026 3.027-7.566 4.44-13.617 4.44h-5.515V11.142h5.113c6.373 0 11.059 1.282 14.059 4.04 2.999 2.759 4.499 7.04 4.499 13.038s-1.512 10.414-4.539 13.438M153.813 9.1c-2.52-2.303-5.705-4.085-9.562-5.344-3.855-1.258-8.408-1.889-13.656-1.889h-16.448v53.507h16.046c5.302 0 9.908-.709 13.818-2.128 3.909-1.419 7.137-3.361 9.681-5.824s4.432-5.37 5.664-8.717c1.232-3.348 1.848-6.95 1.848-10.806s-.602-7.377-1.808-10.565a21.157 21.157 0 00-5.583-8.234M89.179 55.374H99.88V1.868H89.179v53.506zM77.764 9.1V1.867H40.665v9.275h23.409L39.238 47.984v7.39h39.238v-9.275H53.068L77.764 9.1zM11.415 31.831h17.122V23.27H11.415V11.142h19.263V1.867H0v53.507h31.392v-9.275H11.415V31.831z"/></svg>