<svg xmlns="http://www.w3.org/2000/svg" width="173.572" height="54.5"><path d="M0 0v2.515h.972c2.914 0 3.714 1.2 3.714 4.342v21.316c0 3.144-.8 4.343-3.714 4.343H0v2.514c2.629-.112 5.2-.112 7.829-.112 2.628 0 5.257 0 7.886.112v-2.514h-.914c-2.972 0-3.773-1.143-3.773-4.343V19.83h4.688c8.514 0 12.629-2.972 12.629-9.887C28.344 3.086 23.887 0 14.686 0H0zm11.027 3.314h3.487c5.028 0 7.657 2.286 7.657 6.516 0 4.686-2.514 6.914-7.714 6.914h-3.431V3.314zm25.476 3.783c2.012 0 3.978-.046 5.942-.092v2.012h-.776c-2.515 0-2.972.869-2.972 3.475V24.88c0 5.211 1.6 7.59 6.49 7.59 4.801 0 6.447-2.379 6.447-7.499V12.629c0-2.698-.503-3.612-3.154-3.612h-.731V7.005c1.965.046 3.841.092 5.714.092 1.829 0 3.657-.046 5.44-.092v2.012h-.823c-1.964 0-2.515 1.051-2.515 3.475v12.205c0 7.59-3.107 10.973-10.835 10.973-7.268 0-11.062-3.52-11.062-10.332V12.492c0-2.378-.504-3.475-2.516-3.475h-.731V7.005c2.058.046 4.07.092 6.082.092m24.961-.092v2.012h.731c2.331 0 3.018.959 3.018 3.475v17.053c0 2.56-.641 3.475-3.018 3.475h-.731v2.011c2.103-.091 4.16-.091 6.263-.091s4.206 0 6.31.091V33.02h-.777c-2.332 0-2.973-.915-2.973-3.475V22.32h2.561c3.795 0 4.663 1.097 5.715 4.114.502 1.51.777 4.573 2.285 8.596h7.544v-2.01h-.458c-2.331 0-3.109-1.372-3.885-4.526-1.1-4.39-1.372-6.904-4.893-7.498 3.291-.869 5.12-3.292 5.12-6.538 0-5.303-3.565-7.452-11.063-7.452H61.464zm8.823 2.698h2.926c4.298 0 6.218 1.555 6.218 5.257 0 3.566-2.24 4.937-6.857 4.937h-2.286V9.703zm19.704-2.697v2.012h.73c2.332 0 3.017.959 3.017 3.474v17.054c0 2.513-.685 3.474-3.017 3.474h-.73v2.01h13.394c10.378 0 15.454-4.662 15.454-14.354 0-9.28-5.303-13.669-16.185-13.669H89.991zm8.823 2.651h3.198c7.728 0 11.384 3.383 11.384 10.972 0 8.001-3.565 11.704-11.151 11.704h-3.431V9.657zm27.212-2.56c2.012 0 3.978-.046 5.943-.092v2.012h-.777c-2.513 0-2.971.869-2.971 3.475V24.88c0 5.211 1.599 7.59 6.491 7.59 4.8 0 6.446-2.379 6.446-7.499V12.629c0-2.698-.504-3.612-3.154-3.612h-.732V7.005c1.967.046 3.841.092 5.716.092 1.828 0 3.655-.046 5.439-.092v2.012h-.821c-1.967 0-2.518 1.051-2.518 3.475v12.205c0 7.59-3.107 10.973-10.833 10.973-7.271 0-11.063-3.52-11.063-10.332V12.492c0-2.378-.503-3.475-2.514-3.475h-.733V7.005c2.057.046 4.069.092 6.081.092m47.361.046v7.314h-2.33v-.731c0-3.566-1.007-3.84-4.664-3.84h-6.627v9.463h2.149c3.474 0 4.249-.229 4.249-3.749h2.104v9.966h-2.056c-.048-3.428-.869-3.749-4.207-3.749h-2.239v10.425h6.446c4.296 0 5.029-.549 5.073-5.578h2.287v8.366h-22.814v-2.01h.961c2.422 0 2.972-.961 2.972-3.475V12.492c0-2.515-.593-3.475-2.972-3.475h-.776V7.143h22.444z"/><path fill="#C4960C" d="M3.26 45.166c.673 0 1.345-.014 1.987-.029v.791h-.18c-.82 0-.97.299-.97 1.164v4.018c0 1.434.462 2.105 1.866 2.105 1.358 0 1.925-.686 1.925-2.135v-3.988c0-.82-.193-1.164-.954-1.164h-.18v-.791c.643.016 1.254.029 1.866.029.627 0 1.224-.014 1.822-.029v.791h-.222c-.538 0-.749.373-.749 1.164v3.854c0 2.447-1.028 3.555-3.656 3.555-2.464 0-3.674-1.062-3.674-3.18v-4.229c0-.775-.135-1.164-.731-1.164h-.18v-.791c.685.015 1.374.029 2.03.029m21.325-.029l3.509 7.495-.045-5.54c0-.82-.178-1.164-.955-1.164h-.179v-.791c.642.016 1.268.029 1.911.029.656 0 1.3-.014 1.955-.029v.791h-.179c-.762 0-.955.344-.955 1.164v7.198h-2.539l-3.51-7.465.03 5.495c0 .82.18 1.178.956 1.178h.18v.792c-.643-.029-1.285-.029-1.927-.029-.643 0-1.284 0-1.941.029v-.792h.18c.762 0 .97-.357.97-1.178v-5.229c0-.82-.208-1.164-.97-1.164h-.18v-.791h3.689zm18.964.029c.701 0 1.419-.014 2.137-.029v.791h-.194c-.762 0-.956.344-.956 1.164v5.229c0 .82.194 1.178.956 1.178h.194v.792c-.718-.029-1.436-.029-2.137-.029-.716 0-1.433 0-2.149.029v-.792h.179c.762 0 .955-.357.955-1.178v-5.229c0-.82-.193-1.164-.955-1.164H41.4v-.791c.716.015 1.433.029 2.149.029m14.067 0c.642 0 1.389-.014 2.211-.029v.791c-.763.031-1.077.075-1.077.493 0 .104.032.238.09.404l2.016 5.837 1.928-5.809c.045-.149.06-.283.06-.389 0-.388-.344-.537-1.076-.537v-.791c.718.016 1.374.029 2.001.029.614 0 1.195-.014 1.732-.029v.791c-.537.105-.761.389-.956.955l-2.688 7.557h-2.162l-2.779-7.496c-.238-.657-.448-.971-.956-1.016v-.791c.462.016 1.014.03 1.656.03m25.579 0v2.525h-.851v-.404c0-.866-.493-1.045-1.598-1.045H78.91v2.851h.521c.986 0 1.24-.179 1.255-1.194h.807v3.315h-.807c-.045-.985-.269-1.165-1.193-1.165h-.583v3.166h1.673c1.493 0 1.82-.193 1.85-1.791h.837v2.866h-7.496v-.792h.181c.806 0 .955-.389.955-1.178v-5.229c0-.82-.194-1.164-.955-1.164h-.181v-.762h7.421zm10.873-.029v.791h.18c.761 0 .954.343.954 1.164v5.229c0 .821-.193 1.178-.954 1.178h-.18v.791c.718-.029 1.436-.029 2.15-.029.704 0 1.421 0 2.139.029v-.791h-.196c-.761 0-.955-.356-.955-1.178v-2.077h.717c.819 0 1.283.239 1.491.837.285.791.331 1.941.883 3.209h2.748v-.791h-.075c-.417 0-.731-.119-.956-.388-.269-.312-.373-.985-.612-1.912-.253-.938-.463-1.372-1.315-1.493 1.046-.252 1.615-.984 1.615-2.103 0-1.81-1.227-2.466-3.84-2.466h-3.794zm3.138 1.105h.762c1.254 0 1.82.417 1.82 1.553 0 1.09-.598 1.479-1.896 1.479h-.686v-3.032zm22.936 1.629h-1.151c.018-.105.018-.211.018-.302 0-1.133-.567-1.641-1.807-1.641-1.076 0-1.748.552-1.748 1.343 0 .643.359 1.001 1.15 1.316l1.896.761c1.299.522 1.941 1.312 1.941 2.418 0 1.731-1.298 2.733-3.717 2.733-1.06 0-2.165-.135-3.288-.39v-2.583h1.093c0 .076-.016.15-.016.21 0 1.179.716 1.777 2.105 1.777 1.121 0 1.73-.494 1.73-1.39 0-.644-.312-.971-1.045-1.283l-1.745-.748c-1.449-.629-2.167-1.299-2.167-2.491 0-1.644 1.284-2.677 3.632-2.677.954 0 2 .15 3.118.42v2.527zm13.231-2.705c.702 0 1.418-.014 2.136-.029v.791h-.193c-.764 0-.957.344-.957 1.164v5.229c0 .82.193 1.178.957 1.178h.193v.792c-.718-.029-1.434-.029-2.136-.029-.716 0-1.432 0-2.15.029v-.792h.181c.76 0 .955-.357.955-1.178v-5.229c0-.82-.195-1.164-.955-1.164h-.181v-.791c.718.015 1.434.029 2.15.029m15.456 0h2.523c.312 0 1.269-.029 2.867-.029v2.762h-.987v-.239c0-1.179-.328-1.417-1.432-1.417h-.658v6.078c0 .82.193 1.178.956 1.178h.314v.792c-.762-.029-1.524-.029-2.271-.029-.761 0-1.521 0-2.284.029v-.792h.314c.763 0 .953-.357.953-1.178v-6.078h-.805c-1.001 0-1.344.268-1.344 1.27 0 .119 0 .237.016.387h-.94v-2.762c1.553-.001 2.479.028 2.778.028m17.426 0c.642 0 1.314-.014 1.987-.029v.791h-.076c-.477 0-.688.135-.688.434 0 .148.074.328.18.537l1.166 2.36 1.162-2.286c.105-.207.166-.419.166-.566 0-.344-.225-.479-.731-.479v-.791c.643.016 1.255.029 1.864.029.601 0 1.196-.014 1.779-.029v.791h-.06c-.479 0-.763.344-1.163.999l-2.227 3.644v1.854c0 .791.149 1.074 1.016 1.074h.208v.792c-.702-.029-1.418-.029-2.151-.029-.716 0-1.447 0-2.178.029v-.792h.209c.851 0 1.014-.283 1.014-1.074v-1.881l-2.089-3.629c-.356-.613-.659-.955-1.269-.986v-.791c.61.014 1.239.028 1.881.028M.227 38.782h173.392v1.646H.227z"/></svg>