<svg xmlns="http://www.w3.org/2000/svg" height="133" viewBox="0 0 363.84 133.366" width="364"><path d="M153 2h1.24v8.07c-.019 3.03 1.42 4.18 3.81 4.18 2.41 0 3.85-1.15 3.83-4.18V2h1.24v8.34c0 2.68-1.44 4.96-5.07 4.96-3.61 0-5.06-2.28-5.06-4.96V2zm14 4h1.15v1.62h.037c.419-1.13 1.68-1.9 3.01-1.9 2.65 0 3.45 1.39 3.45 3.63v6.06h-1.15V9.53c0-1.62-.529-2.85-2.39-2.85-1.82 0-2.92 1.39-2.96 3.23v5.49h-1.15V5.98zm11-4h1.15v1.84H178V2zm0 3.61h1.15v9.42H178V5.61zm4 .39h1.28l2.96 8.27h.036l2.92-8.27h1.19l-3.52 9.42h-1.22L182.016 6zm12 5c.018 1.68.894 3.7 3.1 3.7 1.68 0 2.59-.985 2.96-2.41h1.15c-.492 2.14-1.73 3.38-4.1 3.38-2.99 0-4.25-2.3-4.25-4.98 0-2.48 1.26-4.98 4.25-4.98 3.03 0 4.23 2.65 4.14 5.29H194zm6.09-.967c-.055-1.73-1.13-3.36-2.99-3.36-1.88 0-2.92 1.64-3.1 3.36h6.1zM204 6h1.06v2.21h.037c.584-1.52 1.86-2.41 3.56-2.34v1.15c-2.08-.11-3.5 1.42-3.5 3.38v5.02h-1.15V6zm13 3c-.055-1.42-1.15-2.06-2.46-2.06-1.02 0-2.23.401-2.23 1.62 0 1.02 1.17 1.39 1.95 1.59l1.53.347c1.31.201 2.68.967 2.68 2.61 0 2.04-2.02 2.83-3.78 2.83-2.19 0-3.69-1.02-3.87-3.32h1.15c.091 1.55 1.24 2.35 2.77 2.35 1.08 0 2.57-.475 2.57-1.79 0-1.1-1.02-1.46-2.06-1.72l-1.48-.329c-1.5-.401-2.63-.913-2.63-2.52 0-1.92 1.88-2.65 3.54-2.65 1.88 0 3.38.985 3.45 3.03h-1.15zm5-7h1.15v1.84H222V2zm0 3.61h1.15v9.42H222V5.61zm6 .39h1.92v.967H228v6.35c0 .748.109 1.19.931 1.24.328 0 .657-.018.985-.055v.986c-.347 0-.675.036-1.02.036-1.53 0-2.06-.511-2.04-2.12v-6.44h-1.64v-.967h1.64v-2.83h1.15v2.83zm4 0h1.22l3.1 8.03 2.9-8.03h1.15l-4.09 10.9c-.657 1.59-1.04 2.04-2.48 2.04-.456-.019-.693-.019-.876-.091v-.967c.274.055.529.091.785.091 1.02 0 1.26-.603 1.64-1.48l.401-1.08-3.76-9.38zm26 5c0 2.7-1.57 4.98-4.45 4.98S249.1 13.7 249.1 11s1.57-4.98 4.45-4.98S258 8.3 258 11zm-7.76 0c0 2.01 1.1 4.02 3.3 4.02 2.21 0 3.3-2.01 3.3-4.02s-1.1-4.02-3.3-4.02c-2.21 0-3.3 2.01-3.3 4.02zM265 7h-1.86v8.45h-1.15V7h-1.61v-.967h1.61v-.857c-.019-1.62.438-2.76 2.28-2.76.328 0 .602.019.967.073v.985a4.687 4.687 0 00-.84-.091c-1.28 0-1.24.803-1.26 1.82v.821h1.86v.967zm19-1c-.438-2.01-2.1-3.16-4-3.16-3.45 0-4.91 2.88-4.91 5.73s1.46 5.73 4.91 5.73c2.41 0 3.94-1.86 4.18-4.18h1.24c-.347 3.19-2.37 5.24-5.42 5.24-4.11 0-6.15-3.23-6.15-6.79s2.04-6.79 6.15-6.79c2.46 0 4.91 1.48 5.24 4.22H284zm5 3c.109-2.21 1.66-3.16 3.81-3.16 1.66 0 3.47.511 3.47 3.03v5c0 .438.22.693.676.693.128 0 .273-.037.365-.073v.967a3.146 3.146 0 01-.749.073c-1.17 0-1.35-.657-1.35-1.64h-.037c-.803 1.22-1.62 1.92-3.43 1.92-1.73 0-3.16-.858-3.16-2.76 0-2.65 2.57-2.74 5.06-3.03.949-.11 1.48-.237 1.48-1.28 0-1.55-1.11-1.93-2.46-1.93-1.42 0-2.48.657-2.52 2.19h-1.15zm6.13 1.39h-.036c-.146.274-.657.365-.968.42-1.95.347-4.38.329-4.38 2.17 0 1.15 1.02 1.86 2.1 1.86 1.75 0 3.3-1.11 3.28-2.96v-1.5zM300 2h1.15v13H300V2zm5 0h1.15v1.84H305V2zm0 3.61h1.15v9.42H305V5.61zM314 7h-1.86v8.45h-1.15V7h-1.61v-.967h1.61v-.857c-.019-1.62.438-2.76 2.28-2.76.328 0 .602.019.967.073v.985a4.687 4.687 0 00-.84-.091c-1.28 0-1.24.803-1.26 1.82v.821h1.86v.967zm11 4c0 2.7-1.57 4.98-4.45 4.98S316.1 13.7 316.1 11s1.57-4.98 4.45-4.98S325 8.3 325 11zm-7.76 0c0 2.01 1.1 4.02 3.3 4.02 2.21 0 3.3-2.01 3.3-4.02s-1.1-4.02-3.3-4.02c-2.21 0-3.3 2.01-3.3 4.02zM328 6h1.06v2.21h.037c.584-1.52 1.86-2.41 3.56-2.34v1.15c-2.08-.11-3.5 1.42-3.5 3.38v5.02h-1.15V6zm7 0h1.15v1.62h.036c.42-1.13 1.68-1.9 3.01-1.9 2.65 0 3.45 1.39 3.45 3.63v6.06h-1.15V9.53c0-1.62-.529-2.85-2.39-2.85-1.82 0-2.92 1.39-2.96 3.23v5.49h-1.15V5.98zm12-4h1.15v1.84H347V2zm0 3.61h1.15v9.42H347V5.61zM352 9c.109-2.21 1.66-3.16 3.81-3.16 1.66 0 3.47.511 3.47 3.03v5c0 .438.22.693.676.693.128 0 .273-.037.365-.073v.967a3.146 3.146 0 01-.749.073c-1.17 0-1.35-.657-1.35-1.64h-.037c-.803 1.22-1.62 1.92-3.43 1.92-1.73 0-3.16-.858-3.16-2.76 0-2.65 2.57-2.74 5.06-3.03.949-.11 1.48-.237 1.48-1.28 0-1.55-1.11-1.93-2.46-1.93-1.42 0-2.48.657-2.52 2.19h-1.15zm6.13 1.39h-.036c-.146.274-.657.365-.968.42-1.95.347-4.38.329-4.38 2.17 0 1.15 1.02 1.86 2.1 1.86 1.75 0 3.3-1.11 3.28-2.96v-1.5z" fill="#666"/><path fill="#839ec8" d="M21 55c3.12 14.2 17.4 23.2 30.3 20.7-9.82-2.76-18.1-11.4-20.6-22.8-2.52-11.5 1.38-22.7 9.14-29.4-12.8 3.1-22 17.2-18.9 31.5z"/><path fill="#005695" d="M102 102c14.3-25.2 5.06-57.4-17.4-70.8 10.8 17.1 11.6 40.7.125 61s-32.2 31.8-52.4 31.3c23 12.4 55.4 3.69 69.7-21.5z"/><path fill="#fab816" d="M51 23c-12 4.84-17.7 18.6-13.5 29.5.944-8.98 7.21-17.4 16.8-21.3 9.64-3.91 20-2.2 27 3.59-4.61-10.7-18.3-16.6-30.3-11.8z"/><path fill="#678bbb" d="M28 90c16.8 7.03 36.3-1.14 43-16.2-9.87 8.06-24.6 10.3-38.1 4.65-13.6-5.67-22.3-17.7-23.5-30.4-6 15.3 1.85 34.9 18.7 41.9z"/><path fill="#4979af" d="M50 112c21.4-4.41 35.2-25.7 31.6-45.1-4.33 14.7-17.4 26.9-34.7 30.4C29.6 100.86 12.8 94.81 3 83c4.42 19.2 25.5 33.3 46.9 28.9z"/><g fill="#231f20"><path d="M163 117c-.498-2.27-2.38-3.57-4.52-3.57-3.91 0-5.56 3.27-5.56 6.49 0 3.23 1.65 6.49 5.56 6.49 2.73 0 4.46-2.11 4.73-4.73h1.4c-.393 3.62-2.69 5.93-6.13 5.93-4.65 0-6.97-3.66-6.97-7.69s2.32-7.69 6.97-7.69c2.78 0 5.56 1.67 5.93 4.77H163zm3 3c.125-2.5 1.89-3.58 4.32-3.58 1.88 0 3.93.58 3.93 3.43v5.66c0 .498.249.783.764.783.148 0 .312-.041.412-.082v1.1a3.6 3.6 0 01-.845.084c-1.32 0-1.53-.744-1.53-1.86h-.04c-.908 1.38-1.84 2.17-3.88 2.17-1.96 0-3.57-.973-3.57-3.12 0-3 2.91-3.1 5.72-3.43 1.08-.125 1.68-.268 1.68-1.44 0-1.76-1.26-2.19-2.79-2.19-1.61 0-2.81.742-2.85 2.48h-1.3zm6.95 1.57h-.042c-.165.311-.742.414-1.09.475-2.21.395-4.96.371-4.96 2.46 0 1.3 1.16 2.11 2.38 2.11 1.98 0 3.74-1.26 3.72-3.35v-1.69zM177 113h1.3v14.8H177V113zm4 0h1.3v2.09H181V113zm0 4.09h1.3v10.7H181v-10.7zm8 .91h-2.1v9.57h-1.3V118h-1.82v-1.1h1.82v-.969c-.022-1.84.494-3.12 2.58-3.12.375 0 .682.021 1.1.082v1.12a5.387 5.387 0 00-.945-.102c-1.45 0-1.41.908-1.43 2.06v.928h2.1v1.1zm11 4c0 3.06-1.78 5.64-5.04 5.64-3.27 0-5.04-2.58-5.04-5.64s1.78-5.64 5.04-5.64c3.26.001 5.04 2.59 5.04 5.64zm-8.79 0c0 2.27 1.24 4.55 3.74 4.55s3.74-2.27 3.74-4.55c0-2.27-1.24-4.54-3.74-4.54-2.5.001-3.74 2.27-3.74 4.54zm10.79-5h1.2v2.5h.047c.66-1.72 2.11-2.73 4.03-2.64v1.3c-2.36-.125-3.97 1.61-3.97 3.82v5.69h-1.3v-10.7zm6 0h1.3v1.84h.039c.475-1.28 1.9-2.15 3.41-2.15 3 0 3.91 1.57 3.91 4.12v6.86h-1.3v-6.66c0-1.84-.602-3.22-2.71-3.22-2.07 0-3.31 1.57-3.35 3.66v6.22h-1.3v-10.7zm12-4h1.3v2.09H220V113zm0 4.09h1.3v10.7H220v-10.7zm3 2.91c.122-2.5 1.88-3.58 4.32-3.58 1.88 0 3.93.58 3.93 3.43v5.66c0 .498.246.783.764.783.146 0 .311-.041.412-.082v1.1a3.597 3.597 0 01-.844.084c-1.32 0-1.53-.744-1.53-1.86h-.041c-.91 1.38-1.84 2.17-3.89 2.17-1.96 0-3.58-.973-3.58-3.12 0-3 2.92-3.1 5.72-3.43 1.08-.125 1.68-.268 1.68-1.44 0-1.76-1.26-2.19-2.79-2.19-1.61 0-2.81.742-2.85 2.48h-1.3zm6.94 1.57h-.044c-.164.311-.741.414-1.1.475-2.21.395-4.96.371-4.96 2.46 0 1.3 1.16 2.11 2.38 2.11 1.98 0 3.74-1.26 3.72-3.35v-1.69zM240 113h5.1c4.44.104 6.78 2.54 6.78 7.38s-2.34 7.28-6.78 7.38H240v-14.8zm1.4 13.6h3c4.24.02 6.08-1.78 6.08-6.18s-1.84-6.2-6.08-6.18h-3v12.4zM254 113h1.3v2.09H254V113zm0 4.09h1.3v10.7H254v-10.7zm13 8.91c-.016 3.18-1.24 5.12-4.73 5.12-2.12 0-4.23-.951-4.42-3.22h1.3c.291 1.57 1.67 2.13 3.12 2.13 2.4 0 3.43-1.43 3.43-4.03v-1.45h-.044c-.598 1.3-1.86 2.19-3.39 2.19-3.41 0-4.81-2.44-4.81-5.48 0-2.94 1.73-5.38 4.81-5.38 1.55 0 2.87.973 3.39 2.15h.044v-1.84h1.3v9.8zm-1.3-4.59c0-2.09-.971-4.42-3.43-4.42-2.48 0-3.51 2.21-3.51 4.42 0 2.15 1.12 4.23 3.51 4.23 2.25.001 3.43-2.06 3.43-4.23zM269 113h1.3v2.09H269V113zm0 4.09h1.3v10.7H269v-10.7zm6-.09h2.17v1.1H275v7.19c0 .846.124 1.34 1.06 1.4.375 0 .743-.021 1.12-.064v1.12c-.391 0-.766.043-1.15.043-1.74 0-2.34-.578-2.32-2.4v-7.3h-1.85v-1.1h1.85v-3.2h1.3v3.2zm4 3c.125-2.5 1.88-3.58 4.32-3.58 1.88 0 3.93.58 3.93 3.43v5.66c0 .498.246.783.764.783.143 0 .308-.041.412-.082v1.1c-.29.061-.5.084-.849.084-1.32 0-1.53-.744-1.53-1.86h-.042c-.905 1.38-1.84 2.17-3.89 2.17-1.96 0-3.57-.973-3.57-3.12 0-3 2.91-3.1 5.72-3.43 1.08-.125 1.67-.268 1.67-1.44 0-1.76-1.26-2.19-2.79-2.19-1.61 0-2.81.742-2.85 2.48h-1.3zm6.94 1.57h-.039c-.168.311-.744.414-1.1.475-2.21.395-4.96.371-4.96 2.46 0 1.3 1.15 2.11 2.38 2.11 1.98 0 3.74-1.26 3.72-3.35v-1.69zM290 113h1.3v14.8H290V113zm10 0h1.41v13.6h8.27v1.2H300V113zm11 0h1.3v2.09H311V113zm0 4.09h1.3v10.7H311v-10.7zm3-4.09h1.3v6.12h.04c.562-1.53 2.11-2.34 3.7-2.34 3.25 0 4.79 2.62 4.79 5.64s-1.55 5.64-4.79 5.64c-1.72 0-3.2-.889-3.8-2.34h-.042v2.03h-1.2v-14.8zm5.04 4.88c-2.77 0-3.74 2.33-3.74 4.54s.971 4.55 3.74 4.55c2.48 0 3.49-2.34 3.49-4.55s-1.01-4.54-3.49-4.54zM326 117h1.2v2.5h.042c.661-1.72 2.11-2.73 4.03-2.64v1.3c-2.36-.125-3.97 1.61-3.97 3.82v5.69h-1.3v-10.7zm7 3c.125-2.5 1.88-3.58 4.32-3.58 1.88 0 3.93.58 3.93 3.43v5.66c0 .498.251.783.762.783.148 0 .312-.041.416-.082v1.1a3.684 3.684 0 01-.85.084c-1.32 0-1.53-.744-1.53-1.86h-.037c-.91 1.38-1.84 2.17-3.89 2.17-1.96 0-3.57-.973-3.57-3.12 0-3 2.91-3.1 5.72-3.43 1.07-.125 1.68-.268 1.68-1.44 0-1.76-1.26-2.19-2.8-2.19-1.61 0-2.81.742-2.85 2.48h-1.3zm6.95 1.57h-.046c-.165.311-.742.414-1.09.475-2.21.395-4.96.371-4.96 2.46 0 1.3 1.16 2.11 2.38 2.11 1.98 0 3.74-1.26 3.72-3.35v-1.69zM344 117h1.2v2.5h.039c.664-1.72 2.11-2.73 4.03-2.64v1.3c-2.36-.125-3.97 1.61-3.97 3.82v5.69h-1.3v-10.7z"/><path d="M349 117h1.38l3.52 9.1 3.29-9.1h1.3l-4.63 12.3c-.741 1.8-1.18 2.31-2.81 2.31-.517-.021-.787-.021-.994-.102v-1.1c.312.062.599.104.892.104 1.16 0 1.43-.68 1.86-1.67l.457-1.22-4.26-10.6z"/></g><path d="M205 53c-3.12-11.4-9.17-14.5-17.5-14.5-15 0-22 13.4-22 27.4 0 18 8.87 30.1 21.8 30.1 9.76 0 14.7-5.36 19.8-15.8l3.51.677c-1.27 5.27-3.41 13.1-4.97 16.8-2.73.682-11.5 2.73-18.2 2.73-26 0-36.4-16.6-36.4-32.3 0-19.2 15.1-34 38.1-34 8.29 0 14.8 1.95 17.6 2.54.777 5.36 1.17 9.65 1.75 15.8l-3.51.587zm52-18c11.2 0 21.2 2.44 27.7 8.68 4.58 4.39 8.39 11.6 8.39 20.3 0 24-18.4 34.4-41.4 34.4h-24.7v-3.12c7.61-.589 8.38-1.27 8.38-11.8v-33.5c0-10.5-.775-11.2-7.6-11.8v-3.12h29.2zm-8.87 47.9c0 8.97.974 11.1 8 11.1 14 0 22.7-10.9 22.7-27.3 0-21-10.6-27.5-24.5-27.5-2.83 0-4.98.291-5.56.683-.585.388-.679 2.44-.679 5.07v37.9zM333 83c0 7.12.386 9.27 2.44 10.1 1.66.683 4.29.781 7.32.781 3.8 0 8.29-.588 10.5-3.02 1.56-1.86 3.12-4.97 4.68-9.65l3.51.684c-.585 3.8-2.54 13.7-3.41 16.4h-46.5v-3.12c8-.589 8.78-1.27 8.78-11.8v-33.5c0-10.5-.777-11.2-8.19-11.8v-3.12h29.3v3.12c-7.6.584-8.39 1.26-8.39 11.8v33.2z"/></svg>