<svg xmlns="http://www.w3.org/2000/svg" height="27.403" width="46.495" viewBox="0 0 34.871 20.552"><path d="M27.161 3.323A3.648 3.648 0 0023.559.264a3.644 3.644 0 00-3.433 2.43h4.648c.867 0 1.68.23 2.387.629m-12.313-.629a3.647 3.647 0 00-7.035.629 4.84 4.84 0 012.383-.629z" fill="#353a4a"/><path d="M14.641 9.983h5.691a7.293 7.293 0 018.786-4.605 4.922 4.922 0 00-1.961-2.055 4.818 4.818 0 00-2.383-.63h-5.57a1.716 1.716 0 11-3.434 0h-5.574a4.84 4.84 0 00-2.383.63 4.913 4.913 0 00-1.957 2.055 7.34 7.34 0 011.91-.254 7.3 7.3 0 016.875 4.859" fill="#3a4754"/><path d="M20.332 9.983h-5.691a7.362 7.362 0 010 4.863h5.691a7.27 7.27 0 010-4.863M7.766 6.338a6.08 6.08 0 00-6.074 6.075c0 3.351 2.722 6.078 6.074 6.078s6.074-2.727 6.074-6.078a6.08 6.08 0 00-6.074-6.074m0 10.936a4.86 4.86 0 01-4.86-4.863 4.86 4.86 0 019.72 0 4.86 4.86 0 01-4.86 4.864M27.207 6.338a6.084 6.084 0 00-6.078 6.075 6.085 6.085 0 006.078 6.078c3.348 0 6.074-2.727 6.074-6.078a6.083 6.083 0 00-6.074-6.074m0 10.936a4.864 4.864 0 01-4.863-4.863 4.861 4.861 0 019.723 0 4.86 4.86 0 01-4.86 4.864" fill="#353a4a"/><path d="M27.207 7.553a4.86 4.86 0 100 9.723 4.86 4.86 0 004.86-4.863 4.86 4.86 0 00-4.86-4.86m-19.441 0a4.86 4.86 0 00-4.86 4.86 4.86 4.86 0 104.86-4.86" fill="#28a6b0"/><path d="M14.641 9.983c-1.004-2.828-3.703-4.86-6.875-4.86a7.293 7.293 0 00-7.29 7.29 7.29 7.29 0 007.29 7.293c3.172 0 5.871-2.031 6.875-4.86a7.368 7.368 0 000-4.863m-6.875 8.508c-3.348 0-6.074-2.727-6.074-6.078 0-3.348 2.726-6.074 6.074-6.074s6.074 2.726 6.074 6.074a6.084 6.084 0 01-6.074 6.078M29.118 5.378a7.294 7.294 0 00-9.203 7.035 7.293 7.293 0 007.293 7.293 7.293 7.293 0 001.91-14.328m-1.91 13.113a6.085 6.085 0 01-6.078-6.079 6.084 6.084 0 016.078-6.074 6.083 6.083 0 016.074 6.074 6.084 6.084 0 01-6.074 6.079" fill="#353a4a"/><path d="M5.942 9.276a1.822 1.822 0 10.003 3.644 1.822 1.822 0 00-.003-3.644m19.441 0a1.823 1.823 0 10-.002 3.646 1.823 1.823 0 00.002-3.646" fill="#97ccd1"/></svg>